<svg id="icons" enable-background="new 0 0 64 64" height="512" viewBox="0 0 64 64" width="512" xmlns="http://www.w3.org/2000/svg"><g><g><path d="m50.18 26.79c-1.609-5.011-5.529-9.21-10.93-10.96-1.73-.561-3.49-.83-5.22-.84-7.181-.01-13.86 4.56-16.2 11.76-.5 1.52-.76 3.07-.83 4.6v1.32c.28 6.91 4.79 13.24 11.75 15.5 8.92 2.9 18.52-1.99 21.42-10.92 1.15-3.529 1.08-7.17.01-10.46zm-16.18-9.79c1.11 0 2 .9 2 2s-.89 2-2 2c-1.1 0-2-.9-2-2s.9-2 2-2zm-10.46 11.6c-.34 1.051-1.47 1.621-2.521 1.28-1.05-.34-1.63-1.47-1.289-2.521.35-1.049 1.47-1.619 2.52-1.279.95.311 1.51 1.26 1.37 2.22-.02.1-.04.2-.08.3zm4.43 15.089c-.649.891-1.899 1.09-2.79.44-.89-.649-1.09-1.899-.439-2.79.649-.89 1.899-1.09 2.79-.439.889.65 1.089 1.9.439 2.789zm-2.97-11.689c0-1.24.25-2.43.71-3.5 1.36-3.23 4.56-5.5 8.29-5.5 3.88 0 7.19 2.46 8.45 5.91.36.96.55 2.01.55 3.09 0 4.971-4.04 9-9 9-4.97 0-9-4.029-9-9zm17.81 12.141c-.89.649-2.14.449-2.79-.44-.649-.9-.449-2.15.44-2.8.9-.65 2.15-.45 2.79.439.65.9.46 2.15-.44 2.801zm4.17-14.25c-1.05.339-2.18-.241-2.52-1.291s.23-2.18 1.29-2.52c1.04-.34 2.17.24 2.51 1.29.35 1.05-.23 2.18-1.28 2.521z" fill="#656d78"/></g><g><path d="m17 52v-3.99-15.34c.28 6.91 4.79 13.24 11.75 15.5 8.92 2.9 18.52-1.99 21.42-10.92 1.15-3.529 1.08-7.17.01-10.46-1.609-5.011-5.529-9.21-10.93-10.96-1.73-.561-3.49-.83-5.22-.84-7.181-.01-13.86 4.56-16.2 11.76-.5 1.52-.76 3.07-.83 4.6v-15.35-4l-1.39-2.43c5.01-4.1 11.41-6.57 18.39-6.57 16.02 0 29 12.98 29 29s-12.98 29-29 29c-6.87 0-13.42-2.54-18.4-6.55z" fill="#e6e9ed"/></g><g><path d="m34.027 13.001c-.553 0-1.005-.448-1.005-1s.442-1 .994-1h.011c.552 0 1 .448 1 1s-.448 1-1 1z" fill="#ccd1d9"/></g><g><path d="m35.029 9.998c-.553 0-1.005-.448-1.005-1s.442-1 .994-1h.011c.552 0 1 .448 1 1s-.448 1-1 1z" fill="#ccd1d9"/></g><g><path d="m36.025 6.996c-.553 0-1.005-.448-1.005-1s.442-1 .994-1h.011c.552 0 1 .448 1 1s-.448 1-1 1z" fill="#ccd1d9"/></g><g><path d="m34.031 53.006c-.553 0-1.005-.447-1.005-1s.442-1 .994-1h.011c.552 0 1 .447 1 1s-.448 1-1 1z" fill="#ccd1d9"/></g><g><path d="m33.029 56.01c-.553 0-1.005-.447-1.005-1s.442-1 .994-1h.011c.552 0 1 .447 1 1s-.448 1-1 1z" fill="#ccd1d9"/></g><g><path d="m32.031 59.009c-.553 0-1.005-.447-1.005-1s.442-1 .994-1h.011c.552 0 1 .447 1 1s-.448 1-1 1z" fill="#ccd1d9"/></g><g><path d="m29.109 13.648c-.534.143-1.086-.174-1.229-.707s.169-1.08.701-1.223l.011-.004c.533-.143 1.082.174 1.225.707.142.536-.174 1.084-.708 1.227z" fill="#ccd1d9"/></g><g><path d="m29.3 10.488c-.534.143-1.087-.173-1.229-.706-.143-.534.169-1.08.701-1.223l.011-.002c.533-.143 1.082.173 1.225.707.142.532-.175 1.081-.708 1.224z" fill="#ccd1d9"/></g><g><path d="m29.485 7.331c-.533.143-1.087-.173-1.229-.707-.144-.533.168-1.081.701-1.223l.01-.003c.533-.143 1.082.174 1.226.707.142.534-.174 1.083-.708 1.226z" fill="#ccd1d9"/></g><g><path d="m39.468 52.289c-.534.143-1.087-.173-1.229-.707-.144-.533.168-1.08.701-1.223l.01-.004c.533-.143 1.082.174 1.226.708.141.535-.175 1.083-.708 1.226z" fill="#ccd1d9"/></g><g><path d="m39.277 55.449c-.534.143-1.087-.172-1.229-.706-.144-.534.168-1.081.701-1.224l.011-.002c.533-.143 1.081.174 1.225.707.142.534-.174 1.083-.708 1.225z" fill="#ccd1d9"/></g><g><path d="m39.09 58.604c-.534.145-1.087-.172-1.23-.705-.143-.534.168-1.08.701-1.223l.012-.004c.531-.143 1.081.174 1.225.707.141.535-.176 1.082-.708 1.225z" fill="#ccd1d9"/></g><g><path d="m24.527 15.545c-.48.277-1.094.115-1.371-.363-.275-.479-.116-1.088.36-1.363l.011-.006c.477-.275 1.09-.112 1.365.365.276.48.113 1.092-.365 1.367z" fill="#ccd1d9"/></g><g><path d="m23.893 12.443c-.479.275-1.095.115-1.37-.363-.276-.479-.116-1.087.36-1.363l.01-.006c.478-.276 1.09-.113 1.365.365.277.479.112 1.092-.365 1.367z" fill="#ccd1d9"/></g><g><path d="m23.255 9.346c-.479.276-1.095.114-1.371-.364-.276-.479-.116-1.088.361-1.363l.009-.005c.478-.276 1.09-.112 1.367.366.275.478.111 1.09-.366 1.366z" fill="#ccd1d9"/></g><g><path d="m44.533 50.189c-.479.275-1.095.113-1.371-.365s-.117-1.086.361-1.363l.008-.006c.479-.275 1.091-.111 1.368.367.277.479.113 1.09-.366 1.367z" fill="#ccd1d9"/></g><g><path d="m45.167 53.291c-.479.275-1.094.115-1.37-.364-.277-.479-.117-1.088.36-1.364l.01-.004c.478-.275 1.089-.111 1.366.366.276.477.112 1.09-.366 1.366z" fill="#ccd1d9"/></g><g><path d="m45.802 56.386c-.478.278-1.094.115-1.371-.362-.275-.479-.117-1.087.361-1.363l.01-.006c.478-.275 1.09-.112 1.367.365.276.48.11 1.09-.367 1.366z" fill="#ccd1d9"/></g><g><path d="m20.592 18.563c-.393.392-1.026.394-1.419.003-.39-.391-.394-1.02-.004-1.41l.008-.008c.39-.389 1.024-.391 1.414 0 .389.393.39 1.026.001 1.415z" fill="#ccd1d9"/></g><g><path d="m19.176 15.732c-.391.39-1.027.395-1.418.002-.391-.391-.393-1.02-.004-1.408l.008-.008c.39-.391 1.023-.392 1.413-.001.391.391.39 1.025.001 1.415z" fill="#ccd1d9"/></g><g><path d="m17.758 12.904c-.391.391-1.027.395-1.418.004-.392-.391-.394-1.021-.004-1.41l.007-.008c.39-.39 1.024-.391 1.415 0s.389 1.026 0 1.414z" fill="#ccd1d9"/></g><g><path d="m48.882 46.85c-.391.391-1.027.393-1.419.002-.391-.391-.394-1.018-.003-1.41l.005-.008c.393-.39 1.025-.391 1.418 0 .39.39.39 1.024-.001 1.416z" fill="#ccd1d9"/></g><g><path d="m50.297 49.682c-.392.391-1.025.395-1.417.002-.392-.391-.396-1.02-.005-1.41l.008-.006c.391-.391 1.023-.391 1.415 0 .39.388.39 1.023-.001 1.414z" fill="#ccd1d9"/></g><g><path d="m51.711 52.506c-.389.393-1.026.395-1.418.006-.389-.391-.395-1.02-.004-1.41l.008-.008c.391-.391 1.024-.391 1.415-.002.392.392.39 1.025-.001 1.414z" fill="#ccd1d9"/></g><g><path d="m17.572 22.498c-.278.48-.89.646-1.371.37-.477-.276-.644-.884-.369-1.36l.006-.011c.276-.478.889-.642 1.367-.366.477.278.642.889.367 1.367z" fill="#ccd1d9"/></g><g><path d="m52.219 42.498c-.277.479-.891.645-1.371.369-.478-.275-.643-.881-.367-1.361l.003-.01c.278-.477.889-.642 1.37-.366.477.276.641.889.365 1.368z" fill="#ccd1d9"/></g><g><path d="m54.318 44.867c-.277.479-.889.646-1.368.369-.479-.276-.646-.883-.37-1.361l.007-.008c.275-.479.887-.643 1.366-.365.478.273.642.887.365 1.365z" fill="#ccd1d9"/></g><g><path d="m56.415 47.229c-.273.479-.889.646-1.368.372-.477-.275-.645-.883-.368-1.361l.005-.01c.276-.477.889-.641 1.367-.367.48.278.64.89.364 1.366z" fill="#ccd1d9"/></g><g><path d="m54.315 37.432c-.144.533-.694.853-1.229.711-.531-.143-.848-.685-.706-1.221v-.01c.146-.532.692-.85 1.229-.707.532.143.85.691.706 1.227z" fill="#ccd1d9"/></g><g><path d="m56.957 39.176c-.145.534-.691.855-1.227.711-.534-.143-.852-.686-.709-1.219l.004-.01c.143-.533.69-.85 1.226-.707.531.141.849.692.706 1.225z" fill="#ccd1d9"/></g><g><path d="m59.594 40.916c-.141.533-.691.854-1.226.713-.532-.143-.851-.686-.708-1.22l.002-.011c.145-.531.692-.85 1.227-.709.535.145.847.694.705 1.227z" fill="#ccd1d9"/></g><g><path d="m55.029 31.994c-.001.553-.45 1.004-1.004 1.006-.549 0-.995-.441-.997-.996l-.003-.01c.003-.553.449-1 1.004-1.002.551 0 1 .449 1 1.002z" fill="#ccd1d9"/></g><g><path d="m58.032 32.996c-.001.553-.446 1.004-1 1.004s-1.001-.441-1-.994v-.01c0-.553.447-1 1.002-1 .549-.002.998.447.998 1z" fill="#ccd1d9"/></g><g><path d="m61.029 33.994c.003.551-.446 1.004-.998 1.006-.552 0-1-.441-1.001-.994l-.001-.012c.002-.551.449-1 1.002-1.002.555 0 .998.45.998 1.002z" fill="#ccd1d9"/></g><g><path d="m54.312 26.559c.142.533-.175 1.084-.71 1.23-.53.142-1.074-.17-1.221-.705l-.005-.008c-.14-.533.175-1.082.71-1.227.533-.142 1.082.174 1.226.71z" fill="#ccd1d9"/></g><g><path d="m57.471 26.748c.143.535-.17 1.086-.705 1.229-.535.144-1.082-.167-1.224-.701l-.003-.01c-.143-.533.174-1.082.709-1.225.53-.145 1.08.174 1.223.707z" fill="#ccd1d9"/></g><g><path d="m60.625 26.938c.146.53-.172 1.084-.703 1.229-.533.143-1.08-.167-1.225-.701l-.004-.01c-.141-.533.175-1.082.708-1.229.537-.143 1.081.177 1.224.711z" fill="#ccd1d9"/></g><g><path d="m17.567 41.497c.277.481.116 1.095-.364 1.374-.479.271-1.088.113-1.363-.363l-.006-.008c-.274-.479-.11-1.092.367-1.369.479-.272 1.091-.11 1.366.366z" fill="#ccd1d9"/></g><g><path d="m52.211 21.492c.275.48.112 1.094-.367 1.373-.475.274-1.08.114-1.36-.364l-.008-.007c-.272-.479-.11-1.091.368-1.369.478-.275 1.09-.111 1.367.367z" fill="#ccd1d9"/></g><g><path d="m55.313 20.857c.275.48.116 1.094-.363 1.371-.48.277-1.089.117-1.363-.361l-.006-.01c-.275-.477-.112-1.088.368-1.365.474-.276 1.087-.111 1.364.365z" fill="#ccd1d9"/></g><g><path d="m58.408 20.225c.277.475.114 1.092-.361 1.369-.479.275-1.087.118-1.364-.359l-.007-.01c-.273-.479-.111-1.091.367-1.369.48-.276 1.089-.11 1.365.369z" fill="#ccd1d9"/></g><g><path d="m20.586 45.433c.393.394.395 1.028.004 1.421-.393.387-1.021.392-1.411.003l-.008-.007c-.39-.391-.389-1.025.001-1.416.391-.387 1.025-.389 1.414-.001z" fill="#ccd1d9"/></g><g><path d="m17.756 46.848c.389.393.395 1.027-.001 1.42-.389.391-1.017.393-1.405.004l-.01-.008c-.389-.389-.391-1.025 0-1.414.39-.393 1.024-.393 1.416-.002z" fill="#ccd1d9"/></g><g><path d="m48.872 17.144c.39.392.392 1.026-.001 1.421-.387.388-1.013.39-1.407 0l-.01-.005c-.387-.392-.389-1.024.001-1.417.392-.391 1.024-.391 1.417.001z" fill="#ccd1d9"/></g><g><path d="m51.703 15.728c.391.394.395 1.026.004 1.417-.393.393-1.021.396-1.41.006l-.008-.008c-.391-.391-.391-1.023.002-1.416.386-.389 1.022-.389 1.412.001z" fill="#ccd1d9"/></g><g><path d="m54.529 14.314c.391.387.393 1.025.006 1.416-.391.391-1.02.396-1.411.006l-.009-.008c-.389-.391-.391-1.023 0-1.416.393-.391 1.024-.388 1.414.002z" fill="#ccd1d9"/></g><g><path d="m24.52 48.453c.481.278.647.891.372 1.371-.278.475-.885.643-1.362.368l-.01-.005c-.477-.275-.641-.89-.365-1.367.277-.474.89-.641 1.365-.367z" fill="#ccd1d9"/></g><g><path d="m22.152 50.553c.477.277.647.89.367 1.371-.275.479-.881.643-1.356.367l-.012-.004c-.476-.275-.643-.891-.366-1.366.277-.481.888-.645 1.367-.368z" fill="#ccd1d9"/></g><g><path d="m19.788 52.654c.479.279.646.891.37 1.369-.277.48-.885.645-1.361.372l-.01-.007c-.478-.275-.641-.889-.365-1.369.276-.478.888-.64 1.366-.365z" fill="#ccd1d9"/></g><g><path d="m44.521 13.807c.478.277.644.891.366 1.373-.271.475-.877.639-1.358.364l-.011-.003c-.475-.277-.641-.889-.365-1.369.276-.479.887-.642 1.368-.365z" fill="#ccd1d9"/></g><g><path d="m46.889 11.706c.479.278.647.89.371 1.368-.278.48-.885.646-1.361.369l-.009-.004c-.479-.277-.643-.887-.364-1.369.27-.474.885-.638 1.363-.364z" fill="#ccd1d9"/></g><g><path d="m49.254 9.61c.477.272.644.889.371 1.366-.276.479-.883.646-1.361.37l-.011-.005c-.476-.277-.642-.888-.366-1.369.277-.478.887-.638 1.367-.362z" fill="#ccd1d9"/></g><g><path d="m29.102 50.353c.537.144.855.692.715 1.228-.146.531-.688.85-1.222.709l-.01-.002c-.532-.143-.85-.693-.708-1.227.146-.532.694-.85 1.225-.708z" fill="#ccd1d9"/></g><g><path d="m27.357 52.993c.533.145.856.692.711 1.229-.143.533-.686.849-1.216.705h-.012c-.53-.143-.851-.694-.707-1.225.142-.535.69-.852 1.224-.709z" fill="#ccd1d9"/></g><g><path d="m25.619 55.635c.533.146.854.693.711 1.227-.143.536-.688.852-1.219.713l-.011-.006c-.533-.141-.849-.691-.707-1.227.144-.535.693-.85 1.226-.707z" fill="#ccd1d9"/></g><g><path d="m39.454 11.711c.532.144.852.692.708 1.23-.139.527-.681.844-1.217.703h-.012c-.53-.145-.849-.693-.707-1.227.144-.534.692-.85 1.228-.706z" fill="#ccd1d9"/></g><g><path d="m41.197 9.068c.536.146.855.691.713 1.226-.145.536-.688.853-1.219.709l-.01-.003c-.534-.143-.85-.69-.706-1.227.138-.529.69-.847 1.222-.705z" fill="#ccd1d9"/></g><g><path d="m42.939 6.431c.531.14.852.692.713 1.224-.145.534-.686.853-1.22.71l-.011-.001c-.532-.145-.851-.692-.709-1.228.145-.535.692-.847 1.227-.705z" fill="#ccd1d9"/></g><g><path d="m17 32.67v15.34h-3.79-.21c-1.99 0-3.63-1.449-3.95-3.34l.01-.01-1.359-8.1-.65-3.871c-.031-.229-.051-.449-.051-.679v-.01c0-.24.02-.46.05-.68l2.01-11.98h-.01c.32-1.9 1.96-3.35 3.95-3.35v.01h4v15.35c-.01.44-.01.88 0 1.32z" fill="#ed5565"/></g><g><path d="m17 16v-4l-1.39-2.43-2.61-4.57c-4.42 0-8 3.57-8 8v14l-4 3v4l4 3.01v13.99.01c.01 4.429 3.58 7.99 8 7.99l2.6-4.55 1.4-2.45v-3.99h-3.79-.21c-1.99 0-3.63-1.449-3.95-3.34l.01-.01-1.359-8.1-.65-3.871c-.031-.229-.051-.449-.051-.679v-.01c0-.24.02-.46.05-.68l2.01-11.98h-.01c.32-1.9 1.96-3.35 3.95-3.35v.01z" fill="#da4453"/></g><g><path d="m13 45c-.553 0-1-.447-1-1v-23c0-.553.447-1 1-1s1 .447 1 1v23c0 .553-.447 1-1 1z" fill="#da4453"/></g></g></svg>