<svg height="512pt" viewBox="0 -38 512.00026 512" width="512pt" xmlns="http://www.w3.org/2000/svg"><g fill="#7f8c8d"><path d="m187.738281 384.003906c-4.042969.007813-7.535156-2.828125-8.363281-6.785156s1.230469-7.949219 4.9375-9.570312l136.535156-59.730469c2.800782-1.277344 6.074219-.945313 8.5625.867187 2.488282 1.8125 3.804688 4.828125 3.449219 7.886719s-2.332031 5.6875-5.171875 6.878906l-136.53125 59.734375c-1.078125.472656-2.242188.71875-3.417969.71875zm0 0"/><path d="m324.265625 384.003906c-1.175781 0-2.335937-.246094-3.410156-.71875l-136.535157-59.734375c-4.242187-1.933593-6.148437-6.914062-4.28125-11.1875 1.871094-4.273437 6.824219-6.253906 11.125-4.445312l136.53125 59.730469c3.707032 1.621093 5.769532 5.617187 4.9375 9.574218-.828124 3.957032-4.320312 6.789063-8.367187 6.78125zm0 0"/><path d="m187.738281 324.269531c-4.042969.007813-7.535156-2.824219-8.363281-6.78125s1.230469-7.953125 4.9375-9.570312l136.535156-59.734375c2.800782-1.277344 6.074219-.945313 8.5625.867187 2.488282 1.816407 3.804688 4.828125 3.449219 7.886719s-2.332031 5.6875-5.171875 6.878906l-136.53125 59.734375c-1.078125.472657-2.242188.71875-3.417969.71875zm0 0"/><path d="m324.265625 324.269531c-1.175781 0-2.335937-.246093-3.410156-.71875l-136.535157-59.734375c-4.242187-1.933594-6.148437-6.914062-4.28125-11.1875 1.871094-4.269531 6.824219-6.25 11.125-4.445312l136.53125 59.734375c3.707032 1.617187 5.769532 5.613281 4.9375 9.570312-.828124 3.957031-4.320312 6.789063-8.367187 6.78125zm0 0"/></g><path d="m179.199219 213.332031h153.601562v42.667969h-153.601562zm0 0" fill="#547580"/><path d="m512 116.054688v80.210937c-.039062 14.121094-11.476562 25.558594-25.601562 25.601563h-25.597657c-7.15625-.019532-13.546875-4.472657-16.042969-11.179688-.6875-1.253906-1.039062-2.664062-1.023437-4.09375.003906-6.5-1.363281-12.925781-4.011719-18.859375-.683594-1.453125-1.449218-2.902344-2.21875-4.265625-2.804687-4.992188-6.613281-9.347656-11.179687-12.800781-5.6875-4.445313-12.464844-7.273438-19.625-8.191407-11.054688-1.441406-22.234375 1.496094-31.148438 8.191407-4.621093 3.441406-8.480469 7.800781-11.347656 12.800781-.824219 1.375-1.566406 2.800781-2.21875 4.265625-2.394531 5.367187-3.617187 11.1875-3.585937 17.066406-.027344 9.414063-7.652344 17.039063-17.066407 17.066407h-170.664062c-7.15625-.019532-13.550781-4.472657-16.042969-11.179688-.6875-1.253906-1.039062-2.664062-1.023438-4.09375.003907-6.5-1.363281-12.925781-4.011718-18.859375-.683594-1.453125-1.449219-2.902344-2.21875-4.265625-2.808594-4.992188-6.613282-9.347656-11.179688-12.800781-5.6875-4.445313-12.464844-7.273438-19.625-8.191407-11.054687-1.429687-22.226562 1.507813-31.148437 8.191407-4.621094 3.441406-8.484375 7.800781-11.347657 12.800781-.824218 1.375-1.566406 2.800781-2.21875 4.265625-2.394531 5.367187-3.617187 11.1875-3.585937 17.066406-.027344 9.414063-7.652344 17.039063-17.066406 17.066407h-25.597657c-14.121093-.042969-25.5585932-11.480469-25.601562-25.601563v-69.117187c-.0742188-23.535157 15.972656-44.058594 38.828125-49.664063l20.308594-5.121094c8.496093-2.042969 16.136719-6.699219 21.84375-13.3125l26.199219-29.953125c16.195312-18.496094 39.585937-29.1054685 64.167968-29.097656h103.339844c17.425781.03125 34.328125 5.957031 47.957031 16.8125l52.140625 41.726562c8.34375 6.625 18.296875 10.925782 28.839844 12.457032l79.019531 11.265625c16.796875 2.453125 29.273438 16.816406 29.355469 33.792969zm0 0" fill="#e64c3c"/><path d="m290.132812 119.46875h-25.597656c-4.714844 0-8.535156-3.824219-8.535156-8.535156 0-4.714844 3.820312-8.535156 8.535156-8.535156h25.597656c4.714844 0 8.535157 3.820312 8.535157 8.535156 0 4.710937-3.820313 8.535156-8.535157 8.535156zm0 0" fill="#fb7b76"/><path d="m162.132812 119.46875h-25.597656c-4.714844 0-8.535156-3.824219-8.535156-8.535156 0-4.714844 3.820312-8.535156 8.535156-8.535156h25.597656c4.714844 0 8.535157 3.820312 8.535157 8.535156 0 4.710937-3.820313 8.535156-8.535157 8.535156zm0 0" fill="#fb7b76"/><path d="m512 119.46875v17.066406h-42.667969c-4.710937 0-8.53125-3.820312-8.53125-8.535156 0-4.710938 3.820313-8.53125 8.53125-8.53125zm0 0" fill="#b0d3f0"/><path d="m512 170.667969v17.066406h-72.277344c-.683594-1.453125-1.449218-2.902344-2.21875-4.265625-2.804687-4.992188-6.613281-9.347656-11.179687-12.800781zm0 0" fill="#c03a2b"/><path d="m375.550781 170.667969c-4.621093 3.441406-8.480469 7.800781-11.347656 12.800781-.824219 1.375-1.566406 2.800781-2.21875 4.265625h-212.394531c-.683594-1.453125-1.449219-2.902344-2.21875-4.265625-2.808594-4.992188-6.613282-9.347656-11.179688-12.800781zm0 0" fill="#c03a2b"/><path d="m85.417969 170.667969c-4.621094 3.441406-8.484375 7.800781-11.347657 12.800781-.824218 1.375-1.566406 2.800781-2.21875 4.265625h-71.851562v-17.066406zm0 0" fill="#c03a2b"/><path d="m371.199219 76.800781h-115.199219c-4.710938 0-8.53125-3.820312-8.53125-8.535156v-42.664063c0-4.714843 3.820312-8.535156 8.53125-8.535156h18.6875c13.550781-.003906 26.703125 4.601563 37.292969 13.054688l52.136719 41.730468c2.25 1.800782 4.617187 3.457032 7.082031 4.949219zm0 0" fill="#b0d3f0"/><path d="m213.332031 25.601562v42.664063c0 4.714844-3.820312 8.535156-8.53125 8.535156h-117.589843c2.375-1.964843 4.574218-4.136719 6.570312-6.484375l26.199219-29.953125c12.960937-14.8125 31.6875-23.304687 51.367187-23.296875h33.453125c2.261719 0 4.433594.898438 6.035157 2.5 1.597656 1.601563 2.496093 3.769532 2.496093 6.035156zm0 0" fill="#b0d3f0"/><path d="m102.398438 375.46875h307.203124c9.425782 0 17.066407 7.640625 17.066407 17.066406v25.597656c0 9.425782-7.640625 17.066407-17.066407 17.066407h-307.203124c-9.425782 0-17.066407-7.640625-17.066407-17.066407v-25.597656c0-9.425781 7.640625-17.066406 17.066407-17.066406zm0 0" fill="#56595e"/></svg>