<svg height="512pt" viewBox="-71 0 512 512.001" width="512pt" xmlns="http://www.w3.org/2000/svg"><path d="m157.714844 277.617188c6.632812 1.125 11.492187 6.859374 11.492187 13.585937v-.023437c0-6.667969 4.765625-12.4375 11.335938-13.5625 25.628906-4.390626 31.453125-23.429688 32.679687-29.585938l-2.121094-.820312c-2.519531-.957032-4.257812-3.417969-4.265624-6.195313l-.070313-29.429687c-10.550781 7.277343-23.1875 11.40625-36.625 11.40625-13.722656 0-26.3125-3.644532-36.941406-10.433594v28.417968c0 2.746094-1.6875 5.210938-4.25 6.207032l-2.839844 1.097656c.675781 4.878906 5.042969 24.824219 31.605469 29.335938zm0 0" fill="#ffbeab"/><path d="m165.082031 222.824219c-11.761719-.785157-22.574219-4.316407-31.882812-10.265625v28.417968c0 2.746094-1.6875 5.210938-4.25 6.207032l-2.839844 1.097656c.675781 4.878906 5.042969 24.824219 31.605469 29.335938 2.875.488281 5.414062 1.84375 7.367187 3.769531zm0 0" fill="#f7af9f"/><path d="m245.0625 112.414062c-1.78125.960938-3.8125 1.507813-5.964844 1.507813-1.707031 0-3.375-.183594-4.984375-.523437v47.96875c0 .535156-.027343 1.066406-.039062 1.597656 17.457031 2.644531 31.128906-9.972656 31.128906-25.460938 0-12.070312-8.277344-22.34375-20.140625-25.089844zm0 0" fill="#ffbeab"/><path d="m254.71875 116.832031c-2.804688-2.054687-6.0625-3.585937-9.65625-4.417969-1.777344.960938-3.808594 1.507813-5.960938 1.507813-1.710937 0-3.375-.183594-4.984374-.523437v47.96875c0 .535156-.03125 1.066406-.042969 1.597656 7.996093 1.210937 15.1875-.785156 20.644531-4.785156zm0 0" fill="#f7af9f"/><path d="m104.539062 113.535156h-8.335937c-1.53125 0-3.019531-.191406-4.449219-.519531-10.3125 3.582031-18.550781 12.855469-18.550781 24.285156 0 15.59375 13.75 28.328125 31.375 25.660157-.015625-.535157-.039063-1.070313-.039063-1.609376zm0 0" fill="#ffbeab"/><path d="m104.539062 158.261719c-6.613281-4.765625-10.730468-12.433594-10.730468-20.960938 0-8.320312 4.375-15.484375 10.730468-20.15625v-3.609375h-8.335937c-1.53125 0-3.019531-.191406-4.449219-.519531-10.3125 3.582031-18.550781 12.855469-18.550781 24.285156 0 15.59375 13.75 28.328125 31.375 25.660157-.015625-.535157-.039063-1.070313-.039063-1.605469zm0 0" fill="#f7af9f"/><path d="m216.125 85.15625h-3.183594c-7.921875 13.546875-22.59375 22.664062-39.421875 22.664062h-69.925781v53.59375c0 33.800782 26.484375 64.671876 66.546875 64.671876 35.660156 0 64.671875-29.011719 64.671875-64.671876v-54.105468c-10.363281-2.199219-18.265625-11.257813-18.6875-22.152344zm0 0" fill="#ffcdbf"/><path d="m134.175781 161.414062v-53.59375h-30.582031v53.59375c0 33.800782 26.484375 64.671876 66.546875 64.671876 5.082031 0 10.019531-.609376 14.765625-1.722657-31.0625-6.902343-50.730469-33.832031-50.730469-62.949219zm0 0" fill="#ffbeab"/><path d="m230.613281 29.902344c-6.179687.472656-11.851562-3.410156-13.039062-9.496094-2.003907-10.242188-7.074219-20.40625-26.886719-20.40625-6.761719 0-60.984375 0-68.730469 0-25.226562 0-45.675781 20.449219-45.675781 45.675781v50.125c0 10.621094 8.609375 19.230469 19.230469 19.230469h78.011719c17.445312 0 32.601562-9.789062 40.289062-24.167969.597656-1.117187 2.289062-.679687 2.289062.582031 0 12.972657 10.613282 23.585938 23.582032 23.585938 6.800781 0 12.363281-5.5625 12.363281-12.363281v-52.308594c.003906-12.324219-10.75-21.28125-21.433594-20.457031zm0 0" fill="#576574"/><path d="m107.453125 95.800781v-50.125c0-25.226562 20.449219-45.675781 45.671875-45.675781-14.128906 0-27.59375 0-31.167969 0-25.226562 0-45.675781 20.449219-45.675781 45.675781v50.125c0 10.621094 8.609375 19.230469 19.230469 19.230469h31.171875c-10.621094 0-19.230469-8.609375-19.230469-19.230469zm0 0" fill="#3e4b5a"/><path d="m304.082031 283.21875-65.066406-25.199219c-20.03125 47.339844-69.78125 43.824219-69.78125 43.824219s-49.265625 4.554688-69.058594-43.507812l-64.183593 24.882812s-35.992188 14.796875-35.992188 55.828125v160.960937c0 6.625 5.371094 11.992188 11.996094 11.992188h270.65625l52.296875-134.242188c1.128906-.652343 1.820312-1.851562 1.820312-3.152343v-55.886719c-8.894531-25.714844-32.6875-35.5-32.6875-35.5zm0 0" fill="#ff6b6b"/><path d="m30.910156 500.007812v-177.445312c0-21.960938 10.308594-36.402344 19.894532-45.085938l-14.8125 5.742188s-35.992188 14.796875-35.992188 55.828125v160.960937c0 6.625 5.371094 11.992188 11.996094 11.992188h30.90625c-6.625 0-11.992188-5.371094-11.992188-11.992188zm0 0" fill="#ee5253"/><path d="m55.804688 433.671875h226.847656v-30.109375c.003906.003906.007812.003906.011718.007812-11.164062-6.5625-19.960937-16.78125-24.707031-28.96875h-202.152343zm0 0" fill="#feca57"/><path d="m55.804688 374.601562h35.433593v59.066407h-35.433593zm0 0" fill="#f4b537"/><path d="m158.523438 275.535156c-28.269532-4.804687-29.574219-28.355468-29.574219-28.355468l-29.832031 11.566406c19.035156 50.914062 70.117187 46.1875 70.117187 46.1875v-16.734375c0-6.269531-4.53125-11.613281-10.710937-12.664063zm0 0" fill="#ee5253"/><path d="m124.625 270.871094c-3.554688-6.167969-.660156-14.070313 5.980469-16.644532-1.484375-4.058593-1.65625-7.042968-1.65625-7.042968l-29.832031 11.5625c19.03125 50.914062 70.117187 46.1875 70.117187 46.1875v-1.730469c-14.050781-3.121094-32.488281-11.304687-44.609375-32.332031zm0 0" fill="#d83941"/><path d="m211.097656 247.210938c-.222656-.085938-.433594-.199219-.644531-.304688-.640625 4.152344-5.035156 24.242188-30.652344 28.628906-6.125 1.050782-10.566406 6.429688-10.566406 12.644532v16.753906s51.609375 3.652344 70.863281-46.492188zm0 0" fill="#ee5253"/><path d="m189.066406 288.175781c0-6.210937 4.441406-11.589843 10.566406-12.640625 18.105469-3.101562 25.605469-14.042968 28.675782-21.664062l-17.207032-6.660156c-.226562-.085938-.4375-.199219-.648437-.304688-.640625 4.152344-5.035156 24.242188-30.652344 28.628906-6.125 1.050782-10.566406 6.429688-10.566406 12.644532v16.753906s8.472656.601562 19.832031-2.023438zm0 0" fill="#d83941"/><path d="m122.328125 323.433594h-22.0625c-6.515625 0-11.847656 5.332031-11.847656 11.847656v4.121094c0 6.515625 5.332031 11.847656 11.847656 11.847656h22.0625c6.515625 0 11.847656-5.332031 11.847656-11.847656v-4.121094c0-6.515625-5.332031-11.847656-11.847656-11.847656zm0 0" fill="#e4eaf8"/><path d="m115.175781 339.402344v-4.121094c0-5.714844 4.097657-10.515625 9.5-11.609375-.757812-.15625-1.542969-.238281-2.347656-.238281h-22.0625c-6.515625 0-11.847656 5.332031-11.847656 11.847656v4.121094c0 6.515625 5.332031 11.847656 11.847656 11.847656h22.0625c.804687 0 1.589844-.082031 2.347656-.238281-5.402343-1.097657-9.5-5.898438-9.5-11.609375zm0 0" fill="#c7d2e5"/><path d="m219.238281 345.066406h-16.484375c-4.269531 0-7.726562-3.457031-7.726562-7.726562 0-4.265625 3.457031-7.726563 7.726562-7.726563h16.484375c4.265625 0 7.726563 3.460938 7.726563 7.726563 0 4.269531-3.460938 7.726562-7.726563 7.726562zm0 0" fill="#ee5253"/><path d="m310.273438 411.464844c-10.039063-.238282-19.460938-3.101563-27.621094-7.902344v108.4375h49.144531c4.902344 0 8.878906-3.976562 8.878906-8.878906v-99.476563c-8.890625 5.199219-19.300781 8.082031-30.402343 7.820313zm0 0" fill="#e4eaf8"/><path d="m311.664062 411.472656c-.464843 0-.925781.003906-1.390624-.007812-10.039063-.234375-19.460938-3.097656-27.621094-7.902344v108.4375h29.011718zm0 0" fill="#c7d2e5"/><path d="m311.664062 434.183594c-4.265624 0-7.726562 3.460937-7.726562 7.726562v70.089844h15.453125v-70.089844c0-4.265625-3.460937-7.726562-7.726563-7.726562zm0 0" fill="#bac7db"/><path d="m310.273438 413.660156c-30.574219-.734375-55.5-26.203125-56.1875-57.40625-.464844-21.214844 10.082031-39.945312 26.210937-50.65625 2.691406-1.789062 6.261719.25 6.261719 3.527344v50.710938c0 1.328124.691406 2.554687 1.820312 3.21875l21.464844 12.648437c1.125.664063 2.515625.664063 3.640625 0l21.464844-12.648437c1.128906-.664063 1.820312-1.890626 1.820312-3.21875v-50.707032c0-3.332031 3.625-5.289062 6.359375-3.464844 15.730469 10.492188 26.125 28.621094 26.125 49.234376 0 32.933593-26.539062 59.542968-58.980468 58.761718zm0 0" fill="#c7d2e5"/><path d="m283.101562 356.253906c-.167968-7.5625 1.070313-14.800781 3.457032-21.480468v-25.644532c0-3.28125-3.570313-5.316406-6.261719-3.527344-16.128906 10.710938-26.675781 29.4375-26.210937 50.652344.6875 31.203125 25.613281 56.671875 56.1875 57.40625 5.515624.132813 10.851562-.542968 15.925781-1.890625-24.304688-6.492187-42.511719-28.914062-43.097657-55.515625zm0 0" fill="#bac7db"/><g fill="#ee5253"><path d="m176.214844 301.734375c-4.324219.292969-6.980469.109375-6.980469.109375s-2.679687.246094-7.035156.015625c-.441407.996094-.691407 2.09375-.691407 3.253906v206.886719h15.457032v-206.886719c-.003906-1.210937-.277344-2.351562-.75-3.378906zm0 0"/><path d="m63.53125 512v-153.792969c0-4.265625-3.457031-7.726562-7.726562-7.726562-4.265626 0-7.726563 3.460937-7.726563 7.726562v153.792969zm0 0"/></g></svg>