<?xml version="1.0" encoding="iso-8859-1"?>
<!-- Generator: Adobe Illustrator 19.0.0, SVG Export Plug-In . SVG Version: 6.00 Build 0)  -->
<svg version="1.1" id="Capa_1" xmlns="http://www.w3.org/2000/svg" xmlns:xlink="http://www.w3.org/1999/xlink" x="0px" y="0px"
	 viewBox="0 0 464.125 464.125" style="enable-background:new 0 0 464.125 464.125;" xml:space="preserve">
<path style="fill:#696969;" d="M32.022,144.125h96c17.673,0,32,14.327,32,32v256c0,17.673-14.327,32-32,32h-96
	c-17.673,0-32-14.327-32-32v-256C0.022,158.452,14.349,144.125,32.022,144.125z"/>
<path style="fill:#5E5E5F;" d="M128.022,400.125h-96c-17.673,0-32-14.327-32-32v64c0,17.673,14.327,32,32,32h96
	c17.673,0,32-14.327,32-32v-64C160.022,385.798,145.695,400.125,128.022,400.125z"/>
<g>
	<path style="fill:#535354;" d="M24.022,144.125h16v320h-16V144.125z"/>
	<path style="fill:#535354;" d="M56.022,144.125h16v320h-16V144.125z"/>
	<path style="fill:#535354;" d="M88.022,144.125h16v320h-16V144.125z"/>
	<path style="fill:#535354;" d="M120.022,144.125h16v320h-16V144.125z"/>
</g>
<path style="fill:#4398D1;" d="M160.022,248.125h32v112h-32V248.125z"/>
<path style="fill:#DE4C3C;" d="M404.822,48.725l-2.112,3.904l-11.488,21.096l28.128,15.256l13.6-24.992
	c17.667-0.467,31.61-15.168,31.142-32.835s-15.168-31.61-32.835-31.142c-17.667,0.467-31.61,15.168-31.142,32.835
	C400.263,38.461,401.886,43.937,404.822,48.725z"/>
<path style="fill:#BF362C;" d="M421.177,35.356l7.627-14.065l14.065,7.627l-7.627,14.065L421.177,35.356z"/>
<g>
	<path style="fill:#DE4C3C;" d="M290.043,209.945l70.318,38.148l-15.259,28.127l-70.318-38.148L290.043,209.945z"/>
	<path style="fill:#DE4C3C;" d="M433.438,96.613l-56.256-30.52L361.07,95.789l63.488,17.2L433.438,96.613z"/>
	<path style="fill:#DE4C3C;" d="M328.942,188.581l-17.808,32.808l28.128,15.264l20.344-37.504L328.942,188.581z"/>
</g>
<path style="fill:#4398D1;" d="M192.022,280.125h224v48h-224V280.125z"/>
<path style="fill:#3E8CC7;" d="M335.222,314.597c5.405-10.021,5.055-22.164-0.92-31.856l1.392-2.616h-54.072
	c-10.731,13.679-8.34,33.467,5.339,44.198c1.525,1.197,3.158,2.25,4.877,3.146c0.512,0.272,1.056,0.408,1.6,0.656h27.488
	C327.005,325.245,332.011,320.508,335.222,314.597z"/>
<path style="fill:#DE4C3C;" d="M315.678,280.125l0.696-1.28l7.632-14.064l-28.128-15.264l-9.752,17.968
	c-3.465,0.103-6.892,0.757-10.152,1.936c-5.734,2.1-10.737,5.818-14.4,10.704c-0.986,1.248-1.871,2.572-2.648,3.96
	c-8.426,15.533-2.667,34.955,12.864,43.384c0.512,0.272,1.056,0.408,1.6,0.656c15.833,7.63,34.854,0.98,42.484-14.854
	c4.713-9.781,4.115-21.291-1.588-30.53L315.678,280.125z"/>
<path style="fill:#4398D1;" d="M416.022,248.125h48v112h-48V248.125z"/>
<path style="fill:#3E8CC7;" d="M384.022,280.125h32v48h-32V280.125z"/>
<path style="fill:#BF362C;" d="M279.046,291.341h16v16h-16V291.341z"/>
<g>
	<path style="fill:#4398D1;" d="M395.59,212.605c-0.714-0.002-1.424-0.099-2.112-0.288l-97.32-26.592
		c-4.241-1.239-6.675-5.681-5.436-9.922c1.208-4.136,5.476-6.573,9.652-5.51l97.32,26.584c4.268,1.142,6.802,5.528,5.66,9.796
		C402.414,210.185,399.225,212.621,395.59,212.605z"/>
	<path style="fill:#4398D1;" d="M411.678,183.805c-0.691-0.002-1.379-0.091-2.048-0.264l-98.144-25.928
		c-4.272-1.127-6.823-5.504-5.696-9.776c1.127-4.272,5.504-6.823,9.776-5.696l98.152,25.928c4.272,1.126,6.823,5.502,5.698,9.774
		C418.49,181.357,415.312,183.806,411.678,183.805L411.678,183.805z"/>
	<path style="fill:#4398D1;" d="M427.766,155.005c-0.667,0.003-1.331-0.08-1.976-0.248l-98.976-25.256
		c-4.275-1.115-6.837-5.485-5.722-9.76c1.106-4.242,5.42-6.804,9.674-5.744l98.976,25.264c4.277,1.109,6.845,5.474,5.737,9.751
		C434.567,152.53,431.399,154.991,427.766,155.005L427.766,155.005z"/>
	<path style="fill:#4398D1;" d="M443.854,126.213c-0.705,0.001-1.408-0.093-2.088-0.28l-100.384-27.2
		c-4.266-1.153-6.789-5.546-5.636-9.812c1.153-4.266,5.546-6.789,9.812-5.636l100.384,27.24c4.268,1.142,6.802,5.528,5.66,9.796
		c-0.938,3.506-4.119,5.941-7.748,5.932L443.854,126.213z"/>
</g>
<g>
</g>
<g>
</g>
<g>
</g>
<g>
</g>
<g>
</g>
<g>
</g>
<g>
</g>
<g>
</g>
<g>
</g>
<g>
</g>
<g>
</g>
<g>
</g>
<g>
</g>
<g>
</g>
<g>
</g>
</svg>
